<?xml version="1.0" encoding="utf-8"?>
<!-- Generator: Adobe Illustrator 24.1.0, SVG Export Plug-In . SVG Version: 6.00 Build 0)  -->
<svg version="1.1" id="Layer_1" xmlns:serif="http://www.serif.com/"
	 xmlns="http://www.w3.org/2000/svg" xmlns:xlink="http://www.w3.org/1999/xlink" x="0px" y="0px" viewBox="0 0 595.9 216.7"
	 style="enable-background:new 0 0 595.9 216.7;" xml:space="preserve">
<style type="text/css">
	.st0{fill-rule:evenodd;clip-rule:evenodd;fill:#9357AF;}
	.st1{fill-rule:evenodd;clip-rule:evenodd;fill:#3D9729;}
	.st2{fill-rule:evenodd;clip-rule:evenodd;fill:#CC3832;}
	.st3{fill-rule:evenodd;clip-rule:evenodd;fill:#526FDB;}
	.st4{fill-rule:evenodd;clip-rule:evenodd;fill:#FFFFFF;}
	.st5{fill:none;stroke:#FFFFFF;stroke-width:2;stroke-miterlimit:10;}
	.st6{fill:none;stroke:#FFFFFF;stroke-miterlimit:10;}
</style>
<g transform="matrix(1,0,0,1,-269.823,-1060.79)">
	<g transform="matrix(1,0,0,1,-526.066,868.67)">
		<path class="st0" d="M796.1,300.6c58-5.7,131-10,166.4-1.1c14.5,3.6,32.3,6.1,50.1,7.7c-0.8,12.7-3.7,24.8-8.5,35.9
			c-49.3-3.1-94.4,8.5-123.8,14.5c-16.6,3.4-49.8-7.8-71.8-6.8C800.6,335.8,796.1,318.7,796.1,300.6z"/>
	</g>
	<g transform="matrix(1,0,0,1,-526.066,868.67)">
		<path class="st1" d="M821.8,230.6c19.9-23.5,49.6-38.4,82.7-38.4c38.2,0,71.9,19.9,91.2,49.8c-33.5-4.8-68.1-10.1-91.2-14.4
			C882.3,223.5,851.9,225.8,821.8,230.6z"/>
	</g>
	<g transform="matrix(1,0,0,0.890883,-521.175,561.849)">
		<path class="st2" d="M816.9,603.2c30.1-5.3,60.5-7.9,82.7-3.3c23.1,4.8,57.7,10.7,91.2,16.1c10.9,18.9,17.2,41.5,17.2,65.7
			c0,2.5-0.1,5-0.2,7.5c-17.9-1.8-35.7-4.6-50.1-8.6c-35.4-10-108.4-5.1-166.4,1.2l0-0.1C791.2,651.8,800.9,624.4,816.9,603.2z"/>
	</g>
	<g transform="matrix(1,0,0,0.966488,-521.175,524.284)">
		<path class="st3" d="M803.6,719.3c22-1,61,6.4,77.3,1.6c19.2-5.7,69-12.7,118.3-9.5c-16.6,40-55,68-99.6,68
			C858,779.4,821.8,755,803.6,719.3z"/>
	</g>
	<g transform="matrix(1.56471,0,0,1.33776,-1147.81,-450.214)">
		<path class="st4" d="M906.2,1205.1h33.6c1.6,0,3.1,1.1,3.8,2.8l18.1,43.5l18.2-104.2c0.4-2.3,2.1-4,4.2-4c2,0,3.8,1.7,4.2,4
			l13.2,76.6l9.6-16.4c0.8-1.4,2.1-2.2,3.5-2.2h30c0.1,1.8,0.2,3.6,0.2,5.4c0,1.5,0,3-0.1,4.5h-27.8l-14,24c-1,1.6-2.7,2.5-4.4,2.1
			c-1.7-0.4-3-1.9-3.3-3.9l-11.1-64.1l-16.5,94.6c-0.4,2.1-1.8,3.7-3.6,3.9c-1.8,0.3-3.6-0.8-4.3-2.8l-22.4-53.8h-31
			c-0.1-1.5-0.1-3-0.1-4.5C906,1208.7,906.1,1206.9,906.2,1205.1z"/>
	</g>
	<g transform="matrix(0.737942,0,0,0.737942,-229.325,347.448)">
		<g>
			<polygon class="st5" points="999.7,1127.3 1055.3,1127.3 1055.3,1110.9 1019.8,1110.9 1019.8,1028 999.7,1028 			"/>
			<polygon points="999.7,1127.3 1055.3,1127.3 1055.3,1110.9 1019.8,1110.9 1019.8,1028 999.7,1028 			"/>
		</g>
		<g>
			<rect x="1067.8" y="1041" class="st5" width="14.8" height="73.3"/>
			<rect x="1067.8" y="1041" width="14.8" height="73.3"/>
		</g>
		<g>
			<polygon class="st5" points="1120.1,1028 1100.1,1028 1100.1,1127.3 1120.1,1127.3 1120.1,1097.8 1127.5,1086.6 1148,1127.3 
				1170.5,1127.3 1140.5,1070.5 1167.5,1028 1145.7,1028 1120.4,1067.8 1120.1,1067.8 			"/>
			<polygon points="1120.1,1028 1100.1,1028 1100.1,1127.3 1120.1,1127.3 1120.1,1097.8 1127.5,1086.6 1148,1127.3 1170.5,1127.3 
				1140.5,1070.5 1167.5,1028 1145.7,1028 1120.4,1067.8 1120.1,1067.8 			"/>
		</g>
		<g>
			<polygon class="st5" points="1169,1028 1187.1,1127.3 1209.5,1127.3 1220.6,1055.2 1220.9,1055.2 1232,1127.3 1254.5,1127.3 
				1272.6,1028 1253.3,1028 1242.3,1101.4 1242.1,1101.4 1230.4,1028 1211.2,1028 1199.5,1101.4 1199.2,1101.4 1188.2,1028 			"/>
			<polygon points="1169,1028 1187.1,1127.3 1209.5,1127.3 1220.6,1055.2 1220.9,1055.2 1232,1127.3 1254.5,1127.3 1272.6,1028 
				1253.3,1028 1242.3,1101.4 1242.1,1101.4 1230.4,1028 1211.2,1028 1199.5,1101.4 1199.2,1101.4 1188.2,1028 			"/>
		</g>
		<g>
			<rect x="1284.2" y="1041" class="st5" width="14.8" height="73.3"/>
			<rect x="1284.2" y="1041" width="14.8" height="73.3"/>
		</g>
		<g>
			<path class="st5" d="M1337.6,1112.6v-69.9h8.5c3.8,0,6.8,0.7,9.1,2.2c2.3,1.4,4,3.6,5.1,6.4c1.2,2.8,1.9,6.4,2.3,10.6
				c0.4,4.3,0.6,9.2,0.6,14.9c0,6.8-0.2,12.4-0.6,17c-0.4,4.5-1.3,8.2-2.5,11c-1.3,2.8-2.9,4.8-5.1,6c-2.1,1.2-5,1.8-8.5,1.8H1337.6
				z M1317.5,1028v99.4h31.6c6.7,0,12.2-1,16.6-3.1c4.4-2,7.8-5.1,10.4-9.3c2.6-4.2,4.4-9.5,5.5-15.9c1.1-6.4,1.6-14,1.6-22.8
				c0-7.3-0.4-14-1.2-19.9s-2.4-11-4.8-15.2c-2.4-4.2-5.7-7.5-10-9.7c-4.3-2.3-9.9-3.4-16.8-3.4H1317.5z"/>
			<path d="M1337.6,1112.6v-69.9h8.5c3.8,0,6.8,0.7,9.1,2.2c2.3,1.4,4,3.6,5.1,6.4c1.2,2.8,1.9,6.4,2.3,10.6
				c0.4,4.3,0.6,9.2,0.6,14.9c0,6.8-0.2,12.4-0.6,17c-0.4,4.5-1.3,8.2-2.5,11c-1.3,2.8-2.9,4.8-5.1,6c-2.1,1.2-5,1.8-8.5,1.8H1337.6
				z M1317.5,1028v99.4h31.6c6.7,0,12.2-1,16.6-3.1c4.4-2,7.8-5.1,10.4-9.3c2.6-4.2,4.4-9.5,5.5-15.9c1.1-6.4,1.6-14,1.6-22.8
				c0-7.3-0.4-14-1.2-19.9s-2.4-11-4.8-15.2c-2.4-4.2-5.7-7.5-10-9.7c-4.3-2.3-9.9-3.4-16.8-3.4H1317.5z"/>
		</g>
		<g>
			<rect x="1399.4" y="1108.5" class="st5" width="13.6" height="16"/>
			<rect x="1399.4" y="1108.5" width="13.6" height="16"/>
		</g>
		<g>
			<path class="st5" d="M1430,1026.8v16.4h19.2v-16.4H1430z M1430,1052.5v73.5c0,3.9-0.4,6.8-1.2,8.7c-0.8,1.9-2.8,2.9-5.9,2.9h-1.5
				c-0.5,0-1-0.1-1.5-0.3v13.9c1.4,0.1,2.7,0.2,3.9,0.2c1.2,0,2.4,0.1,3.5,0.1c4.3,0,7.8-0.4,10.6-1.2s5.1-2.1,6.8-3.7
				c1.7-1.6,2.9-3.6,3.6-6.1c0.7-2.4,1-5.2,1-8.4v-79.6H1430z"/>
			<path d="M1430,1026.8v16.4h19.2v-16.4H1430z M1430,1052.5v73.5c0,3.9-0.4,6.8-1.2,8.7c-0.8,1.9-2.8,2.9-5.9,2.9h-1.5
				c-0.5,0-1-0.1-1.5-0.3v13.9c1.4,0.1,2.7,0.2,3.9,0.2c1.2,0,2.4,0.1,3.5,0.1c4.3,0,7.8-0.4,10.6-1.2s5.1-2.1,6.8-3.7
				c1.7-1.6,2.9-3.6,3.6-6.1c0.7-2.4,1-5.2,1-8.4v-79.6H1430z"/>
		</g>
		<g>
			<rect x="1465.9" y="1041" class="st5" width="14.2" height="73.3"/>
			<rect x="1465.9" y="1041" width="14.2" height="73.3"/>
		</g>
	</g>
	<g transform="matrix(0.225992,0,0,0.225992,350.535,1026.48)">
		<g>
			<path class="st6" d="M692.3,834.7h8.8c0.2-5.8,2-10.1,5.6-12.7c3.5-2.6,8.1-4,13.6-4c2.6,0,5,0.2,7.3,0.6c2.3,0.4,4.3,1.2,6,2.3
				c1.7,1.1,3.1,2.6,4,4.5c1,1.9,1.5,4.3,1.5,7.3c0,2-0.3,3.5-0.8,4.7c-0.5,1.2-1.2,2.2-2.2,2.9c-0.9,0.7-2.1,1.2-3.5,1.5
				c-1.4,0.3-3,0.5-4.9,0.7c-4.7,0.6-9.4,1.1-14,1.7c-4.6,0.6-8.7,1.6-12.4,3.1c-3.7,1.5-6.6,3.6-8.8,6.5c-2.2,2.8-3.3,6.8-3.3,11.8
				c0,3.6,0.6,6.8,1.9,9.4c1.3,2.6,3,4.8,5.2,6.5c2.2,1.7,4.7,3,7.7,3.8c2.9,0.8,6.1,1.2,9.4,1.2c3.5,0,6.6-0.3,9.1-1
				c2.6-0.6,4.8-1.6,6.8-2.8c2-1.2,3.8-2.7,5.4-4.5c1.6-1.8,3.2-3.9,4.8-6.2h0.3c0,1.9,0.1,3.6,0.3,5.1c0.2,1.5,0.7,2.9,1.5,4
				c0.7,1.1,1.8,2,3.1,2.6c1.3,0.6,3.1,0.9,5.4,0.9c1.2,0,2.2,0,3-0.1c0.8-0.1,1.7-0.2,2.7-0.4v-7.4c-0.8,0.4-1.8,0.6-2.8,0.6
				c-3.4,0-5.2-1.8-5.2-5.3v-38.1c0-4.8-0.8-8.7-2.4-11.8c-1.6-3-3.6-5.4-6.1-7c-2.5-1.7-5.3-2.8-8.5-3.4c-3.2-0.6-6.3-0.9-9.5-0.9
				c-4.2,0-8,0.5-11.4,1.4c-3.4,0.9-6.4,2.4-9,4.3c-2.5,2-4.6,4.5-6.1,7.5C693.4,826.9,692.6,830.5,692.3,834.7z M739,845.2v11.4
				c0,3.5-0.7,6.7-2,9.5c-1.3,2.8-3.2,5.2-5.4,7.1c-2.3,1.9-4.9,3.4-8,4.5c-3.1,1-6.3,1.5-9.6,1.5c-2,0-4-0.3-6-1
				c-2-0.6-3.7-1.6-5.2-2.9c-1.5-1.3-2.7-2.7-3.6-4.5c-0.9-1.7-1.3-3.7-1.3-5.9c0-3.5,1-6.2,3.1-8.1c2.1-1.9,4.8-3.4,8-4.4
				c3.3-1,6.8-1.8,10.8-2.3c3.9-0.5,7.8-1.1,11.5-1.7c1.2-0.2,2.6-0.5,4.2-1c1.6-0.5,2.6-1.2,3.2-2.2H739z"/>
			<path d="M692.3,834.7h8.8c0.2-5.8,2-10.1,5.6-12.7c3.5-2.6,8.1-4,13.6-4c2.6,0,5,0.2,7.3,0.6c2.3,0.4,4.3,1.2,6,2.3
				c1.7,1.1,3.1,2.6,4,4.5c1,1.9,1.5,4.3,1.5,7.3c0,2-0.3,3.5-0.8,4.7c-0.5,1.2-1.2,2.2-2.2,2.9c-0.9,0.7-2.1,1.2-3.5,1.5
				c-1.4,0.3-3,0.5-4.9,0.7c-4.7,0.6-9.4,1.1-14,1.7c-4.6,0.6-8.7,1.6-12.4,3.1c-3.7,1.5-6.6,3.6-8.8,6.5c-2.2,2.8-3.3,6.8-3.3,11.8
				c0,3.6,0.6,6.8,1.9,9.4c1.3,2.6,3,4.8,5.2,6.5c2.2,1.7,4.7,3,7.7,3.8c2.9,0.8,6.1,1.2,9.4,1.2c3.5,0,6.6-0.3,9.1-1
				c2.6-0.6,4.8-1.6,6.8-2.8c2-1.2,3.8-2.7,5.4-4.5c1.6-1.8,3.2-3.9,4.8-6.2h0.3c0,1.9,0.1,3.6,0.3,5.1c0.2,1.5,0.7,2.9,1.5,4
				c0.7,1.1,1.8,2,3.1,2.6c1.3,0.6,3.1,0.9,5.4,0.9c1.2,0,2.2,0,3-0.1c0.8-0.1,1.7-0.2,2.7-0.4v-7.4c-0.8,0.4-1.8,0.6-2.8,0.6
				c-3.4,0-5.2-1.8-5.2-5.3v-38.1c0-4.8-0.8-8.7-2.4-11.8c-1.6-3-3.6-5.4-6.1-7c-2.5-1.7-5.3-2.8-8.5-3.4c-3.2-0.6-6.3-0.9-9.5-0.9
				c-4.2,0-8,0.5-11.4,1.4c-3.4,0.9-6.4,2.4-9,4.3c-2.5,2-4.6,4.5-6.1,7.5C693.4,826.9,692.6,830.5,692.3,834.7z M739,845.2v11.4
				c0,3.5-0.7,6.7-2,9.5c-1.3,2.8-3.2,5.2-5.4,7.1c-2.3,1.9-4.9,3.4-8,4.5c-3.1,1-6.3,1.5-9.6,1.5c-2,0-4-0.3-6-1
				c-2-0.6-3.7-1.6-5.2-2.9c-1.5-1.3-2.7-2.7-3.6-4.5c-0.9-1.7-1.3-3.7-1.3-5.9c0-3.5,1-6.2,3.1-8.1c2.1-1.9,4.8-3.4,8-4.4
				c3.3-1,6.8-1.8,10.8-2.3c3.9-0.5,7.8-1.1,11.5-1.7c1.2-0.2,2.6-0.5,4.2-1c1.6-0.5,2.6-1.2,3.2-2.2H739z"/>
		</g>
		<g>
			<path class="st6" d="M845.8,785.1v67.6c0,4.5-0.3,8.4-0.8,11.7c-0.6,3.3-1.5,5.9-2.9,8c-1.4,2.1-3.3,3.6-5.7,4.6
				c-2.4,1-5.5,1.5-9.2,1.5c-4.9,0-8.6-0.9-11.2-2.9c-2.5-1.9-4.4-4.2-5.5-6.9c-1.1-2.7-1.8-5.5-2-8.5c-0.2-3-0.3-5.5-0.4-7.7h-9.5
				c0,4.4,0.4,8.6,1.1,12.7c0.7,4.1,2.1,7.7,4.2,10.8c2,3.1,4.9,5.6,8.5,7.5c3.6,1.9,8.3,2.8,13.9,2.8c5.4,0,9.9-0.6,13.6-1.8
				c3.7-1.2,6.6-3,8.9-5.4c2.3-2.4,3.9-5.5,4.9-9.2c1-3.7,1.5-8.1,1.5-13.2v-71.7H845.8z"/>
			<path d="M845.8,785.1v67.6c0,4.5-0.3,8.4-0.8,11.7c-0.6,3.3-1.5,5.9-2.9,8c-1.4,2.1-3.3,3.6-5.7,4.6c-2.4,1-5.5,1.5-9.2,1.5
				c-4.9,0-8.6-0.9-11.2-2.9c-2.5-1.9-4.4-4.2-5.5-6.9c-1.1-2.7-1.8-5.5-2-8.5c-0.2-3-0.3-5.5-0.4-7.7h-9.5c0,4.4,0.4,8.6,1.1,12.7
				c0.7,4.1,2.1,7.7,4.2,10.8c2,3.1,4.9,5.6,8.5,7.5c3.6,1.9,8.3,2.8,13.9,2.8c5.4,0,9.9-0.6,13.6-1.8c3.7-1.2,6.6-3,8.9-5.4
				c2.3-2.4,3.9-5.5,4.9-9.2c1-3.7,1.5-8.1,1.5-13.2v-71.7H845.8z"/>
		</g>
		<g>
			<path class="st6" d="M931.8,884.5v-71.8h-8.8v37.7c0,3.6-0.4,7.2-1.3,10.6c-0.8,3.5-2.1,6.6-3.9,9.3c-1.8,2.7-4,4.9-6.7,6.5
				c-2.7,1.6-5.9,2.4-9.7,2.4c-7,0-11.9-1.7-14.7-5s-4.3-8.3-4.5-14.7v-46.8h-8.8v46.6c0,4.3,0.5,8.1,1.4,11.4
				c0.9,3.3,2.4,6.2,4.4,8.5c2,2.3,4.6,4.1,7.8,5.4c3.2,1.2,7.1,1.9,11.6,1.9c5.4,0,10.3-1.3,14.7-3.8c4.4-2.5,7.8-6.2,10.1-11.1
				h0.3v12.9H931.8z"/>
			<path d="M931.8,884.5v-71.8h-8.8v37.7c0,3.6-0.4,7.2-1.3,10.6c-0.8,3.5-2.1,6.6-3.9,9.3c-1.8,2.7-4,4.9-6.7,6.5
				c-2.7,1.6-5.9,2.4-9.7,2.4c-7,0-11.9-1.7-14.7-5s-4.3-8.3-4.5-14.7v-46.8h-8.8v46.6c0,4.3,0.5,8.1,1.4,11.4
				c0.9,3.3,2.4,6.2,4.4,8.5c2,2.3,4.6,4.1,7.8,5.4c3.2,1.2,7.1,1.9,11.6,1.9c5.4,0,10.3-1.3,14.7-3.8c4.4-2.5,7.8-6.2,10.1-11.1
				h0.3v12.9H931.8z"/>
		</g>
		<g>
			<rect x="951.9" y="823.6" class="st6" width="2" height="22.5"/>
			<rect x="951.9" y="823.6" width="2" height="22.5"/>
		</g>
		<g>
			<path class="st6" d="M974.3,785.1v14.1h8.8v-14.1H974.3z M974.3,812.7v71.8h8.8v-71.8H974.3z"/>
			<path d="M974.3,785.1v14.1h8.8v-14.1H974.3z M974.3,812.7v71.8h8.8v-71.8H974.3z"/>
		</g>
		<g>
			<path class="st6" d="M999.1,834.7h8.8c0.2-5.8,2-10.1,5.6-12.7c3.5-2.6,8.1-4,13.6-4c2.6,0,5,0.2,7.3,0.6c2.3,0.4,4.3,1.2,6,2.3
				c1.7,1.1,3.1,2.6,4,4.5c1,1.9,1.5,4.3,1.5,7.3c0,2-0.3,3.5-0.8,4.7c-0.5,1.2-1.2,2.2-2.2,2.9c-0.9,0.7-2.1,1.2-3.5,1.5
				c-1.4,0.3-3,0.5-4.9,0.7c-4.7,0.6-9.4,1.1-14,1.7c-4.6,0.6-8.7,1.6-12.4,3.1c-3.7,1.5-6.6,3.6-8.8,6.5c-2.2,2.8-3.3,6.8-3.3,11.8
				c0,3.6,0.6,6.8,1.9,9.4c1.3,2.6,3,4.8,5.2,6.5c2.2,1.7,4.7,3,7.7,3.8c2.9,0.8,6.1,1.2,9.4,1.2c3.5,0,6.6-0.3,9.1-1
				c2.5-0.6,4.8-1.6,6.8-2.8c2-1.2,3.8-2.7,5.4-4.5c1.6-1.8,3.2-3.9,4.8-6.2h0.3c0,1.9,0.1,3.6,0.4,5.1c0.2,1.5,0.7,2.9,1.5,4
				c0.7,1.1,1.8,2,3.1,2.6c1.3,0.6,3.1,0.9,5.4,0.9c1.2,0,2.2,0,3-0.1c0.8-0.1,1.7-0.2,2.7-0.4v-7.4c-0.8,0.4-1.8,0.6-2.8,0.6
				c-3.4,0-5.1-1.8-5.1-5.3v-38.1c0-4.8-0.8-8.7-2.4-11.8c-1.6-3-3.6-5.4-6.1-7c-2.5-1.7-5.3-2.8-8.5-3.4c-3.2-0.6-6.3-0.9-9.5-0.9
				c-4.2,0-8,0.5-11.4,1.4c-3.4,0.9-6.4,2.4-9,4.3c-2.5,2-4.6,4.5-6.1,7.5C1000.2,826.9,999.3,830.5,999.1,834.7z M1045.8,845.2
				v11.4c0,3.5-0.7,6.7-2,9.5c-1.3,2.8-3.2,5.2-5.4,7.1c-2.3,1.9-4.9,3.4-8,4.5c-3.1,1-6.3,1.5-9.6,1.5c-2,0-4-0.3-6-1
				c-1.9-0.6-3.7-1.6-5.1-2.9c-1.5-1.3-2.7-2.7-3.6-4.5c-0.9-1.7-1.3-3.7-1.3-5.9c0-3.5,1-6.2,3.1-8.1c2.1-1.9,4.8-3.4,8-4.4
				c3.3-1,6.8-1.8,10.8-2.3c3.9-0.5,7.8-1.1,11.5-1.7c1.2-0.2,2.6-0.5,4.2-1c1.6-0.5,2.6-1.2,3.2-2.2H1045.8z"/>
			<path d="M999.1,834.7h8.8c0.2-5.8,2-10.1,5.6-12.7c3.5-2.6,8.1-4,13.6-4c2.6,0,5,0.2,7.3,0.6c2.3,0.4,4.3,1.2,6,2.3
				c1.7,1.1,3.1,2.6,4,4.5c1,1.9,1.5,4.3,1.5,7.3c0,2-0.3,3.5-0.8,4.7c-0.5,1.2-1.2,2.2-2.2,2.9c-0.9,0.7-2.1,1.2-3.5,1.5
				c-1.4,0.3-3,0.5-4.9,0.7c-4.7,0.6-9.4,1.1-14,1.7c-4.6,0.6-8.7,1.6-12.4,3.1c-3.7,1.5-6.6,3.6-8.8,6.5c-2.2,2.8-3.3,6.8-3.3,11.8
				c0,3.6,0.6,6.8,1.9,9.4c1.3,2.6,3,4.8,5.2,6.5c2.2,1.7,4.7,3,7.7,3.8c2.9,0.8,6.1,1.2,9.4,1.2c3.5,0,6.6-0.3,9.1-1
				c2.5-0.6,4.8-1.6,6.8-2.8c2-1.2,3.8-2.7,5.4-4.5c1.6-1.8,3.2-3.9,4.8-6.2h0.3c0,1.9,0.1,3.6,0.4,5.1c0.2,1.5,0.7,2.9,1.5,4
				c0.7,1.1,1.8,2,3.1,2.6c1.3,0.6,3.1,0.9,5.4,0.9c1.2,0,2.2,0,3-0.1c0.8-0.1,1.7-0.2,2.7-0.4v-7.4c-0.8,0.4-1.8,0.6-2.8,0.6
				c-3.4,0-5.1-1.8-5.1-5.3v-38.1c0-4.8-0.8-8.7-2.4-11.8c-1.6-3-3.6-5.4-6.1-7c-2.5-1.7-5.3-2.8-8.5-3.4c-3.2-0.6-6.3-0.9-9.5-0.9
				c-4.2,0-8,0.5-11.4,1.4c-3.4,0.9-6.4,2.4-9,4.3c-2.5,2-4.6,4.5-6.1,7.5C1000.2,826.9,999.3,830.5,999.1,834.7z M1045.8,845.2
				v11.4c0,3.5-0.7,6.7-2,9.5c-1.3,2.8-3.2,5.2-5.4,7.1c-2.3,1.9-4.9,3.4-8,4.5c-3.1,1-6.3,1.5-9.6,1.5c-2,0-4-0.3-6-1
				c-1.9-0.6-3.7-1.6-5.1-2.9c-1.5-1.3-2.7-2.7-3.6-4.5c-0.9-1.7-1.3-3.7-1.3-5.9c0-3.5,1-6.2,3.1-8.1c2.1-1.9,4.8-3.4,8-4.4
				c3.3-1,6.8-1.8,10.8-2.3c3.9-0.5,7.8-1.1,11.5-1.7c1.2-0.2,2.6-0.5,4.2-1c1.6-0.5,2.6-1.2,3.2-2.2H1045.8z"/>
		</g>
		<g>
			<polygon class="st6" points="1103.6,812.7 1126.7,884.5 1136.3,884.5 1153.8,824.1 1154.1,824.1 1171.8,884.5 1181.4,884.5 
				1204.5,812.7 1195.2,812.7 1176.8,874.2 1176.5,874.2 1159,812.7 1149.1,812.7 1131.6,874.2 1131.3,874.2 1112.9,812.7 			"/>
			<polygon points="1103.6,812.7 1126.7,884.5 1136.3,884.5 1153.8,824.1 1154.1,824.1 1171.8,884.5 1181.4,884.5 1204.5,812.7 
				1195.2,812.7 1176.8,874.2 1176.5,874.2 1159,812.7 1149.1,812.7 1131.6,874.2 1131.3,874.2 1112.9,812.7 			"/>
		</g>
		<g>
			<path class="st6" d="M1214,812.7v71.8h8.8v-38.3c0-3.8,0.7-7.3,2-10.5c1.3-3.2,3.1-6,5.5-8.3c2.4-2.3,5.2-4.1,8.4-5.4
				c3.3-1.2,6.9-1.8,10.9-1.6v-8.8c-6.5-0.3-12.1,1.2-16.8,4.3c-4.7,3.2-8.1,7.7-10.4,13.5h-0.3v-16.8H1214z"/>
			<path d="M1214,812.7v71.8h8.8v-38.3c0-3.8,0.7-7.3,2-10.5c1.3-3.2,3.1-6,5.5-8.3c2.4-2.3,5.2-4.1,8.4-5.4
				c3.3-1.2,6.9-1.8,10.9-1.6v-8.8c-6.5-0.3-12.1,1.2-16.8,4.3c-4.7,3.2-8.1,7.7-10.4,13.5h-0.3v-16.8H1214z"/>
		</g>
		<g>
			<path class="st6" d="M1257,834.7h8.8c0.2-5.8,2-10.1,5.6-12.7c3.5-2.6,8.1-4,13.6-4c2.6,0,5,0.2,7.3,0.6c2.3,0.4,4.3,1.2,6,2.3
				c1.7,1.1,3.1,2.6,4,4.5c1,1.9,1.5,4.3,1.5,7.3c0,2-0.3,3.5-0.8,4.7c-0.5,1.2-1.2,2.2-2.2,2.9c-0.9,0.7-2.1,1.2-3.5,1.5
				c-1.4,0.3-3,0.5-4.9,0.7c-4.7,0.6-9.4,1.1-14,1.7s-8.7,1.6-12.4,3.1c-3.7,1.5-6.6,3.6-8.8,6.5c-2.2,2.8-3.3,6.8-3.3,11.8
				c0,3.6,0.6,6.8,1.9,9.4c1.2,2.6,3,4.8,5.1,6.5c2.2,1.7,4.7,3,7.7,3.8c2.9,0.8,6.1,1.2,9.4,1.2c3.5,0,6.6-0.3,9.1-1
				c2.6-0.6,4.8-1.6,6.8-2.8c2-1.2,3.8-2.7,5.4-4.5c1.6-1.8,3.2-3.9,4.8-6.2h0.3c0,1.9,0.1,3.6,0.4,5.1c0.2,1.5,0.7,2.9,1.5,4
				c0.7,1.1,1.8,2,3.1,2.6c1.3,0.6,3.1,0.9,5.4,0.9c1.2,0,2.2,0,3-0.1c0.8-0.1,1.7-0.2,2.7-0.4v-7.4c-0.8,0.4-1.8,0.6-2.8,0.6
				c-3.4,0-5.2-1.8-5.2-5.3v-38.1c0-4.8-0.8-8.7-2.4-11.8c-1.6-3-3.6-5.4-6.1-7c-2.5-1.7-5.3-2.8-8.5-3.4c-3.2-0.6-6.3-0.9-9.5-0.9
				c-4.2,0-8,0.5-11.4,1.4c-3.4,0.9-6.4,2.4-9,4.3c-2.6,2-4.6,4.5-6.1,7.5C1258.2,826.9,1257.3,830.5,1257,834.7z M1303.8,845.2
				v11.4c0,3.5-0.7,6.7-2,9.5c-1.3,2.8-3.2,5.2-5.4,7.1c-2.3,1.9-4.9,3.4-8,4.5c-3.1,1-6.3,1.5-9.6,1.5c-2,0-4-0.3-6-1
				c-2-0.6-3.7-1.6-5.2-2.9c-1.5-1.3-2.7-2.7-3.5-4.5c-0.9-1.7-1.3-3.7-1.3-5.9c0-3.5,1-6.2,3.1-8.1c2.1-1.9,4.8-3.4,8-4.4
				c3.2-1,6.8-1.8,10.8-2.3c3.9-0.5,7.8-1.1,11.5-1.7c1.2-0.2,2.6-0.5,4.2-1c1.6-0.5,2.6-1.2,3.2-2.2H1303.8z"/>
			<path d="M1257,834.7h8.8c0.2-5.8,2-10.1,5.6-12.7c3.5-2.6,8.1-4,13.6-4c2.6,0,5,0.2,7.3,0.6c2.3,0.4,4.3,1.2,6,2.3
				c1.7,1.1,3.1,2.6,4,4.5c1,1.9,1.5,4.3,1.5,7.3c0,2-0.3,3.5-0.8,4.7c-0.5,1.2-1.2,2.2-2.2,2.9c-0.9,0.7-2.1,1.2-3.5,1.5
				c-1.4,0.3-3,0.5-4.9,0.7c-4.7,0.6-9.4,1.1-14,1.7s-8.7,1.6-12.4,3.1c-3.7,1.5-6.6,3.6-8.8,6.5c-2.2,2.8-3.3,6.8-3.3,11.8
				c0,3.6,0.6,6.8,1.9,9.4c1.2,2.6,3,4.8,5.1,6.5c2.2,1.7,4.7,3,7.7,3.8c2.9,0.8,6.1,1.2,9.4,1.2c3.5,0,6.6-0.3,9.1-1
				c2.6-0.6,4.8-1.6,6.8-2.8c2-1.2,3.8-2.7,5.4-4.5c1.6-1.8,3.2-3.9,4.8-6.2h0.3c0,1.9,0.1,3.6,0.4,5.1c0.2,1.5,0.7,2.9,1.5,4
				c0.7,1.1,1.8,2,3.1,2.6c1.3,0.6,3.1,0.9,5.4,0.9c1.2,0,2.2,0,3-0.1c0.8-0.1,1.7-0.2,2.7-0.4v-7.4c-0.8,0.4-1.8,0.6-2.8,0.6
				c-3.4,0-5.2-1.8-5.2-5.3v-38.1c0-4.8-0.8-8.7-2.4-11.8c-1.6-3-3.6-5.4-6.1-7c-2.5-1.7-5.3-2.8-8.5-3.4c-3.2-0.6-6.3-0.9-9.5-0.9
				c-4.2,0-8,0.5-11.4,1.4c-3.4,0.9-6.4,2.4-9,4.3c-2.6,2-4.6,4.5-6.1,7.5C1258.2,826.9,1257.3,830.5,1257,834.7z M1303.8,845.2
				v11.4c0,3.5-0.7,6.7-2,9.5c-1.3,2.8-3.2,5.2-5.4,7.1c-2.3,1.9-4.9,3.4-8,4.5c-3.1,1-6.3,1.5-9.6,1.5c-2,0-4-0.3-6-1
				c-2-0.6-3.7-1.6-5.2-2.9c-1.5-1.3-2.7-2.7-3.5-4.5c-0.9-1.7-1.3-3.7-1.3-5.9c0-3.5,1-6.2,3.1-8.1c2.1-1.9,4.8-3.4,8-4.4
				c3.2-1,6.8-1.8,10.8-2.3c3.9-0.5,7.8-1.1,11.5-1.7c1.2-0.2,2.6-0.5,4.2-1c1.6-0.5,2.6-1.2,3.2-2.2H1303.8z"/>
		</g>
		<g>
			<path class="st6" d="M1330.1,812.7v98.3h8.8v-40.1h0.3c0.9,2.6,2.2,4.9,4,6.8c1.7,2,3.7,3.6,5.9,4.9c2.2,1.3,4.6,2.3,7.2,2.9
				c2.6,0.7,5.2,1,7.8,1c5.5,0,10.2-1,14.3-3c4-2,7.4-4.7,10.1-8.2c2.7-3.5,4.7-7.5,6-12.1c1.3-4.6,1.9-9.4,1.9-14.5
				c0-5.1-0.6-10-1.9-14.5c-1.3-4.6-3.3-8.6-6-12.1c-2.7-3.5-6.1-6.2-10.1-8.3c-4-2-8.8-3.1-14.3-3.1c-5.8,0-11.1,1.4-15.7,4.1
				c-4.6,2.7-7.9,6.6-9.9,11.6h-0.3v-13.6H1330.1z M1387.6,848.6c0,3.7-0.4,7.4-1.3,11.1c-0.9,3.7-2.3,6.9-4.2,9.8
				c-1.9,2.9-4.3,5.2-7.3,7c-3,1.8-6.5,2.7-10.7,2.7c-4.6,0-8.6-0.9-11.8-2.7c-3.2-1.8-5.8-4.1-7.8-7c-2-2.9-3.4-6.1-4.3-9.8
				c-0.9-3.7-1.3-7.3-1.3-11.1c0-4.1,0.4-8,1.2-11.7c0.8-3.7,2.2-7,4.1-9.7c1.9-2.8,4.5-5,7.8-6.7c3.3-1.7,7.3-2.5,12.1-2.5
				c4.2,0,7.7,0.9,10.7,2.7c3,1.8,5.4,4.2,7.3,7c1.9,2.9,3.3,6.1,4.2,9.8C1387.1,841.2,1387.6,844.9,1387.6,848.6z"/>
			<path d="M1330.1,812.7v98.3h8.8v-40.1h0.3c0.9,2.6,2.2,4.9,4,6.8c1.7,2,3.7,3.6,5.9,4.9c2.2,1.3,4.6,2.3,7.2,2.9
				c2.6,0.7,5.2,1,7.8,1c5.5,0,10.2-1,14.3-3c4-2,7.4-4.7,10.1-8.2c2.7-3.5,4.7-7.5,6-12.1c1.3-4.6,1.9-9.4,1.9-14.5
				c0-5.1-0.6-10-1.9-14.5c-1.3-4.6-3.3-8.6-6-12.1c-2.7-3.5-6.1-6.2-10.1-8.3c-4-2-8.8-3.1-14.3-3.1c-5.8,0-11.1,1.4-15.7,4.1
				c-4.6,2.7-7.9,6.6-9.9,11.6h-0.3v-13.6H1330.1z M1387.6,848.6c0,3.7-0.4,7.4-1.3,11.1c-0.9,3.7-2.3,6.9-4.2,9.8
				c-1.9,2.9-4.3,5.2-7.3,7c-3,1.8-6.5,2.7-10.7,2.7c-4.6,0-8.6-0.9-11.8-2.7c-3.2-1.8-5.8-4.1-7.8-7c-2-2.9-3.4-6.1-4.3-9.8
				c-0.9-3.7-1.3-7.3-1.3-11.1c0-4.1,0.4-8,1.2-11.7c0.8-3.7,2.2-7,4.1-9.7c1.9-2.8,4.5-5,7.8-6.7c3.3-1.7,7.3-2.5,12.1-2.5
				c4.2,0,7.7,0.9,10.7,2.7c3,1.8,5.4,4.2,7.3,7c1.9,2.9,3.3,6.1,4.2,9.8C1387.1,841.2,1387.6,844.9,1387.6,848.6z"/>
		</g>
		<g>
			<path class="st6" d="M1410,812.7v98.3h8.8v-40.1h0.3c0.9,2.6,2.2,4.9,4,6.8c1.7,2,3.7,3.6,5.9,4.9c2.2,1.3,4.6,2.3,7.2,2.9
				c2.6,0.7,5.2,1,7.8,1c5.5,0,10.2-1,14.3-3c4-2,7.4-4.7,10.1-8.2c2.7-3.5,4.7-7.5,6-12.1c1.3-4.6,2-9.4,2-14.5
				c0-5.1-0.7-10-2-14.5c-1.3-4.6-3.3-8.6-6-12.1c-2.7-3.5-6.1-6.2-10.1-8.3s-8.8-3.1-14.3-3.1c-5.8,0-11.1,1.4-15.7,4.1
				c-4.6,2.7-7.9,6.6-10,11.6h-0.3v-13.6H1410z M1467.5,848.6c0,3.7-0.4,7.4-1.3,11.1c-0.9,3.7-2.3,6.9-4.2,9.8
				c-1.9,2.9-4.3,5.2-7.3,7c-3,1.8-6.5,2.7-10.7,2.7c-4.6,0-8.6-0.9-11.8-2.7c-3.2-1.8-5.8-4.1-7.8-7c-2-2.9-3.4-6.1-4.3-9.8
				c-0.9-3.7-1.3-7.3-1.3-11.1c0-4.1,0.4-8,1.2-11.7c0.8-3.7,2.2-7,4.1-9.7c2-2.8,4.5-5,7.8-6.7c3.3-1.7,7.3-2.5,12.1-2.5
				c4.2,0,7.7,0.9,10.7,2.7c3,1.8,5.4,4.2,7.3,7c1.9,2.9,3.3,6.1,4.2,9.8C1467,841.2,1467.5,844.9,1467.5,848.6z"/>
			<path d="M1410,812.7v98.3h8.8v-40.1h0.3c0.9,2.6,2.2,4.9,4,6.8c1.7,2,3.7,3.6,5.9,4.9c2.2,1.3,4.6,2.3,7.2,2.9
				c2.6,0.7,5.2,1,7.8,1c5.5,0,10.2-1,14.3-3c4-2,7.4-4.7,10.1-8.2c2.7-3.5,4.7-7.5,6-12.1c1.3-4.6,2-9.4,2-14.5
				c0-5.1-0.7-10-2-14.5c-1.3-4.6-3.3-8.6-6-12.1c-2.7-3.5-6.1-6.2-10.1-8.3s-8.8-3.1-14.3-3.1c-5.8,0-11.1,1.4-15.7,4.1
				c-4.6,2.7-7.9,6.6-10,11.6h-0.3v-13.6H1410z M1467.5,848.6c0,3.7-0.4,7.4-1.3,11.1c-0.9,3.7-2.3,6.9-4.2,9.8
				c-1.9,2.9-4.3,5.2-7.3,7c-3,1.8-6.5,2.7-10.7,2.7c-4.6,0-8.6-0.9-11.8-2.7c-3.2-1.8-5.8-4.1-7.8-7c-2-2.9-3.4-6.1-4.3-9.8
				c-0.9-3.7-1.3-7.3-1.3-11.1c0-4.1,0.4-8,1.2-11.7c0.8-3.7,2.2-7,4.1-9.7c2-2.8,4.5-5,7.8-6.7c3.3-1.7,7.3-2.5,12.1-2.5
				c4.2,0,7.7,0.9,10.7,2.7c3,1.8,5.4,4.2,7.3,7c1.9,2.9,3.3,6.1,4.2,9.8C1467,841.2,1467.5,844.9,1467.5,848.6z"/>
		</g>
		<g>
			<path class="st6" d="M1541.5,843.6H1495c0.4-3.3,1.1-6.4,2.3-9.5c1.2-3.1,2.7-5.8,4.7-8.2c2-2.4,4.3-4.3,7.1-5.7
				c2.8-1.4,6-2.2,9.6-2.2c3.5,0,6.7,0.7,9.5,2.2c2.8,1.4,5.2,3.3,7.1,5.7c2,2.4,3.5,5.1,4.5,8.1S1541.4,840.2,1541.5,843.6z
				 M1495,850.9h55.3c0.2-5-0.3-10-1.4-14.8c-1.1-4.9-2.9-9.2-5.5-12.9c-2.5-3.8-5.9-6.8-10-9.1c-4.1-2.3-9-3.5-14.8-3.5
				c-5.7,0-10.6,1.1-14.7,3.3c-4.1,2.2-7.5,5.1-10.1,8.6c-2.6,3.6-4.5,7.6-5.8,12.2c-1.3,4.5-1.9,9.2-1.9,13.9
				c0,5.1,0.6,10,1.9,14.5c1.2,4.6,3.2,8.6,5.8,12.1c2.6,3.5,6,6.2,10.1,8.2c4.1,2,9,3,14.7,3c9.1,0,16.1-2.2,21.1-6.7
				c5-4.5,8.4-10.8,10.2-18.9h-8.8c-1.4,5.6-3.9,10-7.5,13.4c-3.6,3.3-8.6,5-15,5c-4.2,0-7.7-0.9-10.7-2.6c-3-1.8-5.4-4-7.4-6.7
				c-2-2.7-3.4-5.7-4.2-9.1C1495.5,857.4,1495,854.1,1495,850.9z"/>
			<path d="M1541.5,843.6H1495c0.4-3.3,1.1-6.4,2.3-9.5c1.2-3.1,2.7-5.8,4.7-8.2c2-2.4,4.3-4.3,7.1-5.7c2.8-1.4,6-2.2,9.6-2.2
				c3.5,0,6.7,0.7,9.5,2.2c2.8,1.4,5.2,3.3,7.1,5.7c2,2.4,3.5,5.1,4.5,8.1S1541.4,840.2,1541.5,843.6z M1495,850.9h55.3
				c0.2-5-0.3-10-1.4-14.8c-1.1-4.9-2.9-9.2-5.5-12.9c-2.5-3.8-5.9-6.8-10-9.1c-4.1-2.3-9-3.5-14.8-3.5c-5.7,0-10.6,1.1-14.7,3.3
				c-4.1,2.2-7.5,5.1-10.1,8.6c-2.6,3.6-4.5,7.6-5.8,12.2c-1.3,4.5-1.9,9.2-1.9,13.9c0,5.1,0.6,10,1.9,14.5
				c1.2,4.6,3.2,8.6,5.8,12.1c2.6,3.5,6,6.2,10.1,8.2c4.1,2,9,3,14.7,3c9.1,0,16.1-2.2,21.1-6.7c5-4.5,8.4-10.8,10.2-18.9h-8.8
				c-1.4,5.6-3.9,10-7.5,13.4c-3.6,3.3-8.6,5-15,5c-4.2,0-7.7-0.9-10.7-2.6c-3-1.8-5.4-4-7.4-6.7c-2-2.7-3.4-5.7-4.2-9.1
				C1495.5,857.4,1495,854.1,1495,850.9z"/>
		</g>
		<g>
			<path class="st6" d="M1562.1,812.7v71.8h8.8v-38.3c0-3.8,0.7-7.3,2-10.5c1.3-3.2,3.1-6,5.5-8.3c2.4-2.3,5.2-4.1,8.4-5.4
				c3.3-1.2,6.9-1.8,10.9-1.6v-8.8c-6.5-0.3-12.1,1.2-16.8,4.3c-4.7,3.2-8.1,7.7-10.4,13.5h-0.3v-16.8H1562.1z"/>
			<path d="M1562.1,812.7v71.8h8.8v-38.3c0-3.8,0.7-7.3,2-10.5c1.3-3.2,3.1-6,5.5-8.3c2.4-2.3,5.2-4.1,8.4-5.4
				c3.3-1.2,6.9-1.8,10.9-1.6v-8.8c-6.5-0.3-12.1,1.2-16.8,4.3c-4.7,3.2-8.1,7.7-10.4,13.5h-0.3v-16.8H1562.1z"/>
		</g>
		<g>
			<path class="st6" d="M1672.4,820v-7.4h-14.2v-6.3c0-2,0-3.8,0.1-5.4c0.1-1.7,0.4-3.1,1-4.4c0.6-1.3,1.6-2.3,2.9-3
				c1.3-0.7,3.2-1.1,5.6-1.1c1,0,2,0.1,3.1,0.2c1,0.1,2.1,0.3,3.3,0.5v-7.5c-1.4-0.2-2.6-0.3-3.8-0.4c-1.1-0.1-2.3-0.1-3.6-0.1
				c-3.5,0-6.4,0.5-8.7,1.5c-2.3,1-4.1,2.5-5.4,4.3c-1.3,1.9-2.2,4.1-2.6,6.7c-0.5,2.6-0.7,5.4-0.7,8.5v6.5h-12.2v7.4h12.2v64.4h8.8
				V820H1672.4z"/>
			<path d="M1672.4,820v-7.4h-14.2v-6.3c0-2,0-3.8,0.1-5.4c0.1-1.7,0.4-3.1,1-4.4c0.6-1.3,1.6-2.3,2.9-3c1.3-0.7,3.2-1.1,5.6-1.1
				c1,0,2,0.1,3.1,0.2c1,0.1,2.1,0.3,3.3,0.5v-7.5c-1.4-0.2-2.6-0.3-3.8-0.4c-1.1-0.1-2.3-0.1-3.6-0.1c-3.5,0-6.4,0.5-8.7,1.5
				c-2.3,1-4.1,2.5-5.4,4.3c-1.3,1.9-2.2,4.1-2.6,6.7c-0.5,2.6-0.7,5.4-0.7,8.5v6.5h-12.2v7.4h12.2v64.4h8.8V820H1672.4z"/>
		</g>
		<g>
			<path class="st6" d="M1711.1,818c4.2,0,7.8,0.9,11,2.6c3.2,1.8,5.8,4.1,7.9,7c2.1,2.9,3.7,6.1,4.7,9.8c1.1,3.7,1.6,7.4,1.6,11.2
				s-0.5,7.5-1.6,11.2s-2.6,6.9-4.7,9.8c-2.1,2.9-4.7,5.2-7.9,7c-3.2,1.8-6.8,2.6-11,2.6c-4.2,0-7.8-0.9-11-2.6
				c-3.2-1.8-5.8-4.1-7.9-7c-2.1-2.9-3.7-6.1-4.7-9.8s-1.6-7.4-1.6-11.2s0.5-7.5,1.6-11.2c1.1-3.7,2.6-6.9,4.7-9.8
				c2.1-2.9,4.7-5.2,7.9-7S1706.9,818,1711.1,818z M1711.1,810.6c-5.5,0-10.3,1-14.6,3.1c-4.2,2-7.8,4.8-10.6,8.2
				c-2.9,3.4-5.1,7.4-6.5,12c-1.5,4.6-2.2,9.5-2.2,14.7c0,5.2,0.7,10.1,2.2,14.7c1.5,4.6,3.7,8.6,6.5,12c2.9,3.4,6.4,6.1,10.6,8.1
				c4.2,2,9.1,3,14.6,3c5.5,0,10.3-1,14.5-3c4.2-2,7.8-4.7,10.6-8.1c2.9-3.4,5.1-7.4,6.5-12c1.5-4.6,2.2-9.5,2.2-14.7
				c0-5.2-0.7-10.1-2.2-14.7c-1.5-4.6-3.7-8.6-6.5-12c-2.9-3.4-6.4-6.2-10.6-8.2C1721.4,811.6,1716.5,810.6,1711.1,810.6z"/>
			<path d="M1711.1,818c4.2,0,7.8,0.9,11,2.6c3.2,1.8,5.8,4.1,7.9,7c2.1,2.9,3.7,6.1,4.7,9.8c1.1,3.7,1.6,7.4,1.6,11.2
				s-0.5,7.5-1.6,11.2s-2.6,6.9-4.7,9.8c-2.1,2.9-4.7,5.2-7.9,7c-3.2,1.8-6.8,2.6-11,2.6c-4.2,0-7.8-0.9-11-2.6
				c-3.2-1.8-5.8-4.1-7.9-7c-2.1-2.9-3.7-6.1-4.7-9.8s-1.6-7.4-1.6-11.2s0.5-7.5,1.6-11.2c1.1-3.7,2.6-6.9,4.7-9.8
				c2.1-2.9,4.7-5.2,7.9-7S1706.9,818,1711.1,818z M1711.1,810.6c-5.5,0-10.3,1-14.6,3.1c-4.2,2-7.8,4.8-10.6,8.2
				c-2.9,3.4-5.1,7.4-6.5,12c-1.5,4.6-2.2,9.5-2.2,14.7c0,5.2,0.7,10.1,2.2,14.7c1.5,4.6,3.7,8.6,6.5,12c2.9,3.4,6.4,6.1,10.6,8.1
				c4.2,2,9.1,3,14.6,3c5.5,0,10.3-1,14.5-3c4.2-2,7.8-4.7,10.6-8.1c2.9-3.4,5.1-7.4,6.5-12c1.5-4.6,2.2-9.5,2.2-14.7
				c0-5.2-0.7-10.1-2.2-14.7c-1.5-4.6-3.7-8.6-6.5-12c-2.9-3.4-6.4-6.2-10.6-8.2C1721.4,811.6,1716.5,810.6,1711.1,810.6z"/>
		</g>
		<g>
			<path class="st6" d="M1758.1,812.7v71.8h8.8v-38.3c0-3.8,0.7-7.3,2-10.5c1.3-3.2,3.1-6,5.5-8.3c2.4-2.3,5.2-4.1,8.4-5.4
				c3.2-1.2,6.9-1.8,10.9-1.6v-8.8c-6.5-0.3-12.1,1.2-16.8,4.3c-4.7,3.2-8.1,7.7-10.4,13.5h-0.3v-16.8H1758.1z"/>
			<path d="M1758.1,812.7v71.8h8.8v-38.3c0-3.8,0.7-7.3,2-10.5c1.3-3.2,3.1-6,5.5-8.3c2.4-2.3,5.2-4.1,8.4-5.4
				c3.2-1.2,6.9-1.8,10.9-1.6v-8.8c-6.5-0.3-12.1,1.2-16.8,4.3c-4.7,3.2-8.1,7.7-10.4,13.5h-0.3v-16.8H1758.1z"/>
		</g>
		<g>
			<polygon class="st6" points="1842.3,785.1 1842.3,884.5 1907.5,884.5 1907.5,876.4 1851.8,876.4 1851.8,785.1 			"/>
			<polygon points="1842.3,785.1 1842.3,884.5 1907.5,884.5 1907.5,876.4 1851.8,876.4 1851.8,785.1 			"/>
		</g>
		<g>
			<rect x="1921.4" y="823.6" class="st6" width="2.1" height="22.5"/>
			<rect x="1921.4" y="823.6" width="2.1" height="22.5"/>
		</g>
		<g>
			<polygon class="st6" points="1948,785.1 1948,884.5 1957.4,884.5 1957.4,850.4 1976.5,832.7 2017.8,884.5 2030.1,884.5 
				1983.6,826.2 2028,785.1 2015.2,785.1 1957.4,838.6 1957.4,785.1 			"/>
			<polygon points="1948,785.1 1948,884.5 1957.4,884.5 1957.4,850.4 1976.5,832.7 2017.8,884.5 2030.1,884.5 1983.6,826.2 
				2028,785.1 2015.2,785.1 1957.4,838.6 1957.4,785.1 			"/>
		</g>
		<g>
			<polygon class="st6" points="2028.1,785.1 2055.7,884.5 2066,884.5 2091.1,795.5 2091.3,795.5 2116.5,884.5 2126.6,884.5 
				2154,785.1 2144.5,785.1 2121.8,872.1 2121.5,872.1 2097.2,785.1 2085.3,785.1 2061.1,872.1 2060.8,872.1 2038.3,785.1 			"/>
			<polygon points="2028.1,785.1 2055.7,884.5 2066,884.5 2091.1,795.5 2091.3,795.5 2116.5,884.5 2126.6,884.5 2154,785.1 
				2144.5,785.1 2121.8,872.1 2121.5,872.1 2097.2,785.1 2085.3,785.1 2061.1,872.1 2060.8,872.1 2038.3,785.1 			"/>
		</g>
		<g>
			<rect x="2168.8" y="823.6" class="st6" width="2.1" height="22.5"/>
			<rect x="2168.8" y="823.6" width="2.1" height="22.5"/>
		</g>
		<g>
			<path class="st6" d="M2195.3,785.1v99.4h34.4c15.1-0.4,26.5-4.6,34.2-12.7c7.7-8.1,11.5-20.4,11.5-37s-3.8-28.8-11.5-37
				c-7.7-8.1-19.1-12.4-34.2-12.7H2195.3z M2204.8,876.4v-83.2h20.2c7.1,0,13.3,0.8,18.4,2.3c5.1,1.5,9.4,4,12.7,7.3
				s5.8,7.7,7.4,12.9c1.6,5.3,2.4,11.6,2.4,19.1c0,7.4-0.8,13.8-2.4,19.1c-1.6,5.3-4,9.6-7.4,12.9c-3.3,3.3-7.6,5.8-12.7,7.3
				c-5.2,1.5-11.3,2.3-18.4,2.3H2204.8z"/>
			<path d="M2195.3,785.1v99.4h34.4c15.1-0.4,26.5-4.6,34.2-12.7c7.7-8.1,11.5-20.4,11.5-37s-3.8-28.8-11.5-37
				c-7.7-8.1-19.1-12.4-34.2-12.7H2195.3z M2204.8,876.4v-83.2h20.2c7.1,0,13.3,0.8,18.4,2.3c5.1,1.5,9.4,4,12.7,7.3
				s5.8,7.7,7.4,12.9c1.6,5.3,2.4,11.6,2.4,19.1c0,7.4-0.8,13.8-2.4,19.1c-1.6,5.3-4,9.6-7.4,12.9c-3.3,3.3-7.6,5.8-12.7,7.3
				c-5.2,1.5-11.3,2.3-18.4,2.3H2204.8z"/>
		</g>
	</g>
</g>
</svg>
