<?xml version="1.0" encoding="UTF-8" standalone="no"?>
<!DOCTYPE svg PUBLIC "-//W3C//DTD SVG 1.1//EN" "http://www.w3.org/Graphics/SVG/1.1/DTD/svg11.dtd">
<svg width="100%" height="100%" viewBox="0 0 848 309" version="1.1" xmlns="http://www.w3.org/2000/svg" xmlns:xlink="http://www.w3.org/1999/xlink" xml:space="preserve" xmlns:serif="http://www.serif.com/" style="fill-rule:evenodd;clip-rule:evenodd;stroke-linejoin:round;stroke-miterlimit:2;">
    <g transform="matrix(1,0,0,1,-269.823,-1060.79)">
        <g transform="matrix(1,0,0,1,-526.066,868.67)">
            <path d="M796.215,346.649C878.847,338.592 982.825,332.392 1033.24,345.07C1053.84,350.249 1079.22,353.73 1104.65,356.04C1103.55,374.109 1099.34,391.342 1092.54,407.214C1022.26,402.859 957.993,419.276 916.222,427.883C892.576,432.756 845.293,416.842 813.908,418.215C802.617,396.836 796.236,372.482 796.215,346.649Z" style="fill:rgb(147,87,175);"/>
        </g>
        <g transform="matrix(1,0,0,1,-526.066,868.67)">
            <path d="M832.742,246.874C861.043,213.386 903.354,192.125 950.591,192.125C1005.08,192.125 1053.01,220.414 1080.46,263.124C1032.77,256.255 983.502,248.746 950.591,242.681C918.966,236.854 875.613,240.15 832.742,246.874Z" style="fill:rgb(61,151,41);"/>
        </g>
        <g transform="matrix(1,0,0,0.890883,-521.175,561.849)">
            <path d="M827.851,621.512C870.721,613.965 914.074,610.264 945.7,616.805C978.611,623.613 1027.88,632.042 1075.57,639.752C1091.09,666.726 1100.08,698.866 1100.08,733.345C1100.08,736.941 1099.98,740.511 1099.76,744.048C1074.33,741.456 1048.95,737.548 1028.35,731.735C977.933,717.504 873.956,724.464 791.324,733.507L791.32,733.345C791.32,690.727 805.056,651.683 827.851,621.512Z" style="fill:rgb(204,56,50);"/>
        </g>
        <g transform="matrix(1,0,0,0.966488,-521.175,524.284)">
            <path d="M809.016,789.044C840.402,787.623 895.931,798.131 919.143,791.262C946.494,783.168 1017.37,773.155 1087.65,777.662C1064.07,834.629 1009.36,874.579 945.7,874.579C886.38,874.579 834.83,839.887 809.016,789.044Z" style="fill:rgb(82,111,219);"/>
        </g>
        <g transform="matrix(1.56471,0,0,1.33776,-1147.81,-450.214)">
            <path d="M906.245,1237.21L954.098,1237.21C956.411,1237.21 958.521,1238.75 959.534,1241.18C959.534,1241.18 985.368,1303.11 985.368,1303.11L1011.33,1154.63C1011.91,1151.34 1014.39,1148.98 1017.26,1148.98C1020.14,1148.99 1022.62,1151.36 1023.18,1154.65C1023.18,1154.65 1041.99,1263.7 1041.99,1263.7L1055.62,1240.3C1056.75,1238.37 1058.62,1237.21 1060.62,1237.21L1103.32,1237.21C1103.49,1239.76 1103.56,1242.33 1103.56,1244.91C1103.56,1247.07 1103.51,1249.21 1103.4,1251.34L1063.82,1251.34L1043.91,1285.54C1042.54,1287.89 1040.1,1289.06 1037.71,1288.49C1035.32,1287.93 1033.46,1285.75 1032.98,1282.96C1032.98,1282.96 1017.22,1191.58 1017.22,1191.58L993.655,1326.31C993.137,1329.28 991.06,1331.53 988.49,1331.91C985.92,1332.29 983.429,1330.71 982.294,1327.99C982.294,1327.99 950.318,1251.34 950.318,1251.34L906.162,1251.34C906.052,1249.21 906.001,1247.07 906.001,1244.91C906.001,1242.33 906.074,1239.76 906.245,1237.21Z" style="fill:white;"/>
        </g>
        <g transform="matrix(0.737942,0,0,0.737942,-229.325,347.448)">
            <path d="M1136.99,1195.57L1216.11,1195.57L1216.11,1172.17L1165.54,1172.17L1165.54,1053.99L1136.99,1053.99L1136.99,1195.57Z" style="fill-rule:nonzero;"/>
            <rect x="1230.18" y="1053.99" width="28.554" height="141.581" style="fill-rule:nonzero;"/>
            <path d="M1308.51,1053.99L1279.95,1053.99L1279.95,1195.57L1308.51,1195.57L1308.51,1153.53L1319.02,1137.47L1348.17,1195.57L1380.29,1195.57L1337.46,1114.66L1375.93,1053.99L1345,1053.99L1308.91,1110.7L1308.51,1110.7L1308.51,1053.99Z" style="fill-rule:nonzero;"/>
            <path d="M1378.11,1053.99L1403.89,1195.57L1435.81,1195.57L1451.68,1092.85L1452.07,1092.85L1467.94,1195.57L1499.86,1195.57L1525.64,1053.99L1498.28,1053.99L1482.61,1158.68L1482.21,1158.68L1465.56,1053.99L1438.19,1053.99L1421.54,1158.68L1421.14,1158.68L1405.48,1053.99L1378.11,1053.99Z" style="fill-rule:nonzero;"/>
            <rect x="1538.53" y="1053.99" width="28.554" height="141.581" style="fill-rule:nonzero;"/>
            <path d="M1618.24,1174.55L1618.24,1075.01L1630.34,1075.01C1635.76,1075.01 1640.09,1076.03 1643.33,1078.08C1646.57,1080.13 1649.01,1083.17 1650.66,1087.2C1652.32,1091.23 1653.41,1096.29 1653.94,1102.37C1654.46,1108.45 1654.73,1115.52 1654.73,1123.59C1654.73,1133.24 1654.43,1141.3 1653.84,1147.78C1653.24,1154.26 1652.05,1159.48 1650.27,1163.44C1648.48,1167.41 1646.07,1170.25 1643.03,1171.97C1639.99,1173.69 1635.96,1174.55 1630.93,1174.55L1618.24,1174.55ZM1589.69,1053.99L1589.69,1195.57L1634.7,1195.57C1644.22,1195.57 1652.09,1194.11 1658.3,1191.2C1664.51,1188.3 1669.47,1183.87 1673.17,1177.92C1676.87,1171.97 1679.48,1164.4 1681,1155.21C1682.52,1146.03 1683.28,1135.22 1683.28,1122.79C1683.28,1112.35 1682.69,1102.9 1681.5,1094.44C1680.31,1085.98 1678.03,1078.74 1674.66,1072.72C1671.29,1066.71 1666.56,1062.08 1660.48,1058.84C1654.4,1055.61 1646.4,1053.99 1636.49,1053.99L1589.69,1053.99Z" style="fill-rule:nonzero;"/>
            <rect x="1702.91" y="1164.63" width="26.175" height="30.934" style="fill-rule:nonzero;"/>
            <path d="M1749.91,1052.4L1749.91,1075.8L1777.27,1075.8L1777.27,1052.4L1749.91,1052.4ZM1749.91,1088.89L1749.91,1193.58C1749.91,1199.14 1749.35,1203.27 1748.22,1205.98C1747.1,1208.69 1744.29,1210.04 1739.8,1210.04L1737.62,1210.04C1736.95,1210.04 1736.23,1209.91 1735.43,1209.65L1735.43,1229.48C1737.42,1229.61 1739.27,1229.71 1740.99,1229.77C1742.7,1229.84 1744.36,1229.87 1745.94,1229.87C1752.02,1229.87 1757.08,1229.28 1761.11,1228.09C1765.14,1226.9 1768.35,1225.15 1770.73,1222.83C1773.11,1220.52 1774.8,1217.64 1775.79,1214.21C1776.78,1210.77 1777.27,1206.8 1777.27,1202.31L1777.27,1088.89L1749.91,1088.89Z" style="fill-rule:nonzero;"/>
            <rect x="1797.5" y="1053.99" width="27.364" height="141.581" style="fill-rule:nonzero;"/>
        </g>
        <g transform="matrix(0.225992,0,0,0.225992,350.535,1026.48)">
            <path d="M1137.78,1124.58L1150.27,1124.58C1150.54,1116.25 1153.18,1110.2 1158.2,1106.43C1163.23,1102.67 1169.7,1100.78 1177.64,1100.78C1181.34,1100.78 1184.81,1101.08 1188.05,1101.68C1191.29,1102.27 1194.13,1103.36 1196.57,1104.95C1199.02,1106.53 1200.93,1108.68 1202.32,1111.39C1203.71,1114.1 1204.41,1117.57 1204.41,1121.8C1204.41,1124.58 1204.04,1126.83 1203.32,1128.54C1202.59,1130.26 1201.56,1131.62 1200.24,1132.61C1198.92,1133.6 1197.27,1134.3 1195.28,1134.69C1193.3,1135.09 1190.99,1135.42 1188.34,1135.68C1181.6,1136.48 1174.96,1137.3 1168.41,1138.16C1161.87,1139.02 1155.99,1140.51 1150.77,1142.62C1145.55,1144.74 1141.35,1147.81 1138.18,1151.84C1135,1155.88 1133.42,1161.46 1133.42,1168.6C1133.42,1173.76 1134.31,1178.22 1136.09,1181.98C1137.88,1185.75 1140.32,1188.86 1143.43,1191.3C1146.54,1193.75 1150.17,1195.53 1154.34,1196.66C1158.5,1197.78 1162.96,1198.34 1167.72,1198.34C1172.75,1198.34 1177.07,1197.88 1180.71,1196.95C1184.35,1196.03 1187.58,1194.71 1190.43,1192.99C1193.27,1191.27 1195.85,1189.12 1198.16,1186.55C1200.47,1183.97 1202.75,1181.03 1205,1177.72L1205.4,1177.72C1205.4,1180.37 1205.56,1182.78 1205.89,1184.96C1206.22,1187.14 1206.92,1189.02 1207.98,1190.61C1209.03,1192.2 1210.52,1193.42 1212.44,1194.28C1214.35,1195.14 1216.9,1195.57 1220.07,1195.57C1221.79,1195.57 1223.21,1195.5 1224.33,1195.37C1225.46,1195.24 1226.75,1195.04 1228.2,1194.77L1228.2,1184.27C1227.01,1184.79 1225.69,1185.06 1224.24,1185.06C1219.34,1185.06 1216.9,1182.55 1216.9,1177.52L1216.9,1123.19C1216.9,1116.32 1215.77,1110.73 1213.53,1106.43C1211.28,1102.14 1208.37,1098.8 1204.8,1096.42C1201.23,1094.04 1197.2,1092.42 1192.71,1091.56C1188.21,1090.7 1183.72,1090.27 1179.22,1090.27C1173.27,1090.27 1167.85,1090.93 1162.96,1092.26C1158.07,1093.58 1153.81,1095.63 1150.17,1098.4C1146.54,1101.18 1143.66,1104.75 1141.55,1109.11C1139.43,1113.47 1138.18,1118.63 1137.78,1124.58ZM1204.41,1139.65L1204.41,1155.91C1204.41,1160.93 1203.45,1165.43 1201.53,1169.39C1199.61,1173.36 1197.04,1176.73 1193.8,1179.51C1190.56,1182.28 1186.76,1184.4 1182.39,1185.85C1178.03,1187.31 1173.47,1188.03 1168.71,1188.03C1165.81,1188.03 1162.96,1187.57 1160.19,1186.64C1157.41,1185.72 1154.96,1184.36 1152.85,1182.58C1150.73,1180.79 1149.05,1178.68 1147.79,1176.23C1146.54,1173.79 1145.91,1170.98 1145.91,1167.81C1145.91,1162.78 1147.4,1158.92 1150.37,1156.21C1153.35,1153.5 1157.15,1151.41 1161.77,1149.96C1166.4,1148.51 1171.52,1147.41 1177.14,1146.69C1182.76,1145.96 1188.21,1145.13 1193.5,1144.21C1195.22,1143.94 1197.2,1143.48 1199.45,1142.82C1201.7,1142.16 1203.22,1141.1 1204.01,1139.65L1204.41,1139.65Z" style="fill-rule:nonzero;"/>
            <path d="M1356.5,1053.99L1356.5,1150.36C1356.5,1156.83 1356.1,1162.39 1355.31,1167.01C1354.51,1171.64 1353.12,1175.44 1351.14,1178.41C1349.16,1181.39 1346.45,1183.57 1343.01,1184.96C1339.58,1186.35 1335.21,1187.04 1329.92,1187.04C1322.92,1187.04 1317.6,1185.69 1313.96,1182.98C1310.33,1180.27 1307.72,1176.99 1306.13,1173.16C1304.54,1169.33 1303.62,1165.3 1303.35,1161.06C1303.09,1156.83 1302.89,1153.2 1302.76,1150.16L1289.28,1150.16C1289.28,1156.37 1289.8,1162.39 1290.86,1168.2C1291.92,1174.02 1293.9,1179.14 1296.81,1183.57C1299.72,1188 1303.75,1191.57 1308.91,1194.28C1314.06,1196.99 1320.67,1198.34 1328.74,1198.34C1336.4,1198.34 1342.85,1197.48 1348.07,1195.77C1353.29,1194.05 1357.52,1191.47 1360.76,1188.03C1364,1184.6 1366.35,1180.23 1367.8,1174.94C1369.25,1169.66 1369.98,1163.38 1369.98,1156.11L1369.98,1053.99L1356.5,1053.99Z" style="fill-rule:nonzero;"/>
            <path d="M1479.04,1195.57L1479.04,1093.25L1466.55,1093.25L1466.55,1146.99C1466.55,1152.14 1465.95,1157.2 1464.76,1162.15C1463.57,1167.11 1461.72,1171.51 1459.21,1175.34C1456.7,1179.17 1453.53,1182.25 1449.69,1184.56C1445.86,1186.88 1441.23,1188.03 1435.81,1188.03C1425.9,1188.03 1418.92,1185.65 1414.89,1180.89C1410.86,1176.13 1408.71,1169.13 1408.45,1159.88L1408.45,1093.25L1395.96,1093.25L1395.96,1159.68C1395.96,1165.76 1396.62,1171.18 1397.94,1175.94C1399.26,1180.69 1401.34,1184.73 1404.19,1188.03C1407.03,1191.34 1410.73,1193.88 1415.29,1195.67C1419.85,1197.45 1425.37,1198.34 1431.85,1198.34C1439.52,1198.34 1446.49,1196.53 1452.77,1192.89C1459.05,1189.26 1463.84,1184 1467.14,1177.13L1467.54,1177.13L1467.54,1195.57L1479.04,1195.57Z" style="fill-rule:nonzero;"/>
            <rect x="1502.84" y="1053.99" width="12.492" height="141.581" style="fill-rule:nonzero;"/>
            <path d="M1539.52,1053.99L1539.52,1074.01L1552.01,1074.01L1552.01,1053.99L1539.52,1053.99ZM1539.52,1093.25L1539.52,1195.57L1552.01,1195.57L1552.01,1093.25L1539.52,1093.25Z" style="fill-rule:nonzero;"/>
            <path d="M1574.82,1124.58L1587.31,1124.58C1587.57,1116.25 1590.22,1110.2 1595.24,1106.43C1600.26,1102.67 1606.74,1100.78 1614.67,1100.78C1618.38,1100.78 1621.85,1101.08 1625.08,1101.68C1628.32,1102.27 1631.16,1103.36 1633.61,1104.95C1636.06,1106.53 1637.97,1108.68 1639.36,1111.39C1640.75,1114.1 1641.44,1117.57 1641.44,1121.8C1641.44,1124.58 1641.08,1126.83 1640.35,1128.54C1639.62,1130.26 1638.6,1131.62 1637.28,1132.61C1635.96,1133.6 1634.31,1134.3 1632.32,1134.69C1630.34,1135.09 1628.03,1135.42 1625.38,1135.68C1618.64,1136.48 1612,1137.3 1605.45,1138.16C1598.91,1139.02 1593.03,1140.51 1587.81,1142.62C1582.58,1144.74 1578.39,1147.81 1575.21,1151.84C1572.04,1155.88 1570.45,1161.46 1570.45,1168.6C1570.45,1173.76 1571.35,1178.22 1573.13,1181.98C1574.92,1185.75 1577.36,1188.86 1580.47,1191.3C1583.58,1193.75 1587.21,1195.53 1591.37,1196.66C1595.54,1197.78 1600,1198.34 1604.76,1198.34C1609.78,1198.34 1614.11,1197.88 1617.75,1196.95C1621.38,1196.03 1624.62,1194.71 1627.46,1192.99C1630.31,1191.27 1632.88,1189.12 1635.2,1186.55C1637.51,1183.97 1639.79,1181.03 1642.04,1177.72L1642.43,1177.72C1642.43,1180.37 1642.6,1182.78 1642.93,1184.96C1643.26,1187.14 1643.95,1189.02 1645.01,1190.61C1646.07,1192.2 1647.56,1193.42 1649.47,1194.28C1651.39,1195.14 1653.94,1195.57 1657.11,1195.57C1658.83,1195.57 1660.25,1195.5 1661.37,1195.37C1662.5,1195.24 1663.78,1195.04 1665.24,1194.77L1665.24,1184.27C1664.05,1184.79 1662.73,1185.06 1661.27,1185.06C1656.38,1185.06 1653.94,1182.55 1653.94,1177.52L1653.94,1123.19C1653.94,1116.32 1652.81,1110.73 1650.57,1106.43C1648.32,1102.14 1645.41,1098.8 1641.84,1096.42C1638.27,1094.04 1634.24,1092.42 1629.74,1091.56C1625.25,1090.7 1620.76,1090.27 1616.26,1090.27C1610.31,1090.27 1604.89,1090.93 1600,1092.26C1595.11,1093.58 1590.85,1095.63 1587.21,1098.4C1583.58,1101.18 1580.7,1104.75 1578.58,1109.11C1576.47,1113.47 1575.21,1118.63 1574.82,1124.58ZM1641.44,1139.65L1641.44,1155.91C1641.44,1160.93 1640.49,1165.43 1638.57,1169.39C1636.65,1173.36 1634.07,1176.73 1630.83,1179.51C1627.6,1182.28 1623.8,1184.4 1619.43,1185.85C1615.07,1187.31 1610.51,1188.03 1605.75,1188.03C1602.84,1188.03 1600,1187.57 1597.22,1186.64C1594.45,1185.72 1592,1184.36 1589.89,1182.58C1587.77,1180.79 1586.09,1178.68 1584.83,1176.23C1583.58,1173.79 1582.95,1170.98 1582.95,1167.81C1582.95,1162.78 1584.43,1158.92 1587.41,1156.21C1590.38,1153.5 1594.18,1151.41 1598.81,1149.96C1603.44,1148.51 1608.56,1147.41 1614.18,1146.69C1619.8,1145.96 1625.25,1145.13 1630.54,1144.21C1632.26,1143.94 1634.24,1143.48 1636.49,1142.82C1638.73,1142.16 1640.25,1141.1 1641.05,1139.65L1641.44,1139.65Z" style="fill-rule:nonzero;"/>
            <path d="M1723.74,1093.25L1756.65,1195.57L1770.33,1195.57L1795.32,1109.51L1795.72,1109.51L1820.9,1195.57L1834.58,1195.57L1867.5,1093.25L1854.21,1093.25L1828.04,1180.89L1827.64,1180.89L1802.65,1093.25L1788.58,1093.25L1763.59,1180.89L1763.19,1180.89L1737.02,1093.25L1723.74,1093.25Z" style="fill-rule:nonzero;"/>
            <path d="M1880.98,1093.25L1880.98,1195.57L1893.47,1195.57L1893.47,1141.04C1893.47,1135.62 1894.4,1130.63 1896.25,1126.07C1898.1,1121.51 1900.71,1117.57 1904.08,1114.27C1907.45,1110.96 1911.45,1108.42 1916.08,1106.63C1920.71,1104.85 1925.86,1104.09 1931.55,1104.35L1931.55,1091.86C1922.29,1091.46 1914.33,1093.51 1907.65,1098.01C1900.98,1102.5 1896.05,1108.91 1892.88,1117.24L1892.48,1117.24L1892.48,1093.25L1880.98,1093.25Z" style="fill-rule:nonzero;"/>
            <path d="M1942.25,1124.58L1954.75,1124.58C1955.01,1116.25 1957.65,1110.2 1962.68,1106.43C1967.7,1102.67 1974.18,1100.78 1982.11,1100.78C1985.81,1100.78 1989.28,1101.08 1992.52,1101.68C1995.76,1102.27 1998.6,1103.36 2001.05,1104.95C2003.49,1106.53 2005.41,1108.68 2006.8,1111.39C2008.19,1114.1 2008.88,1117.57 2008.88,1121.8C2008.88,1124.58 2008.52,1126.83 2007.79,1128.54C2007.06,1130.26 2006.04,1131.62 2004.72,1132.61C2003.39,1133.6 2001.74,1134.3 1999.76,1134.69C1997.78,1135.09 1995.46,1135.42 1992.82,1135.68C1986.08,1136.48 1979.43,1137.3 1972.89,1138.16C1966.35,1139.02 1960.46,1140.51 1955.24,1142.62C1950.02,1144.74 1945.82,1147.81 1942.65,1151.84C1939.48,1155.88 1937.89,1161.46 1937.89,1168.6C1937.89,1173.76 1938.78,1178.22 1940.57,1181.98C1942.35,1185.75 1944.8,1188.86 1947.9,1191.3C1951.01,1193.75 1954.65,1195.53 1958.81,1196.66C1962.98,1197.78 1967.44,1198.34 1972.2,1198.34C1977.22,1198.34 1981.55,1197.88 1985.18,1196.95C1988.82,1196.03 1992.06,1194.71 1994.9,1192.99C1997.74,1191.27 2000.32,1189.12 2002.63,1186.55C2004.95,1183.97 2007.23,1181.03 2009.48,1177.72L2009.87,1177.72C2009.87,1180.37 2010.04,1182.78 2010.37,1184.96C2010.7,1187.14 2011.39,1189.02 2012.45,1190.61C2013.51,1192.2 2014.99,1193.42 2016.91,1194.28C2018.83,1195.14 2021.37,1195.57 2024.55,1195.57C2026.26,1195.57 2027.68,1195.5 2028.81,1195.37C2029.93,1195.24 2031.22,1195.04 2032.67,1194.77L2032.67,1184.27C2031.49,1184.79 2030.16,1185.06 2028.71,1185.06C2023.82,1185.06 2021.37,1182.55 2021.37,1177.52L2021.37,1123.19C2021.37,1116.32 2020.25,1110.73 2018,1106.43C2015.75,1102.14 2012.85,1098.8 2009.28,1096.42C2005.71,1094.04 2001.67,1092.42 1997.18,1091.56C1992.69,1090.7 1988.19,1090.27 1983.7,1090.27C1977.75,1090.27 1972.33,1090.93 1967.44,1092.26C1962.55,1093.58 1958.28,1095.63 1954.65,1098.4C1951.01,1101.18 1948.14,1104.75 1946.02,1109.11C1943.91,1113.47 1942.65,1118.63 1942.25,1124.58ZM2008.88,1139.65L2008.88,1155.91C2008.88,1160.93 2007.92,1165.43 2006.01,1169.39C2004.09,1173.36 2001.51,1176.73 1998.27,1179.51C1995.03,1182.28 1991.23,1184.4 1986.87,1185.85C1982.51,1187.31 1977.95,1188.03 1973.19,1188.03C1970.28,1188.03 1967.44,1187.57 1964.66,1186.64C1961.88,1185.72 1959.44,1184.36 1957.32,1182.58C1955.21,1180.79 1953.52,1178.68 1952.27,1176.23C1951.01,1173.79 1950.38,1170.98 1950.38,1167.81C1950.38,1162.78 1951.87,1158.92 1954.85,1156.21C1957.82,1153.5 1961.62,1151.41 1966.25,1149.96C1970.87,1148.51 1976,1147.41 1981.62,1146.69C1987.23,1145.96 1992.69,1145.13 1997.97,1144.21C1999.69,1143.94 2001.67,1143.48 2003.92,1142.82C2006.17,1142.16 2007.69,1141.1 2008.48,1139.65L2008.88,1139.65Z" style="fill-rule:nonzero;"/>
            <path d="M2046.36,1093.25L2046.36,1233.24L2058.85,1233.24L2058.85,1176.13L2059.25,1176.13C2060.57,1179.84 2062.45,1183.08 2064.9,1185.85C2067.34,1188.63 2070.15,1190.94 2073.32,1192.79C2076.5,1194.64 2079.93,1196.03 2083.64,1196.95C2087.34,1197.88 2091.04,1198.34 2094.74,1198.34C2102.54,1198.34 2109.32,1196.92 2115.07,1194.08C2120.82,1191.24 2125.61,1187.34 2129.44,1182.38C2133.28,1177.42 2136.12,1171.67 2137.97,1165.13C2139.82,1158.59 2140.74,1151.68 2140.74,1144.41C2140.74,1137.14 2139.82,1130.23 2137.97,1123.69C2136.12,1117.14 2133.28,1111.39 2129.44,1106.43C2125.61,1101.48 2120.82,1097.55 2115.07,1094.64C2109.32,1091.73 2102.54,1090.27 2094.74,1090.27C2086.41,1090.27 2078.98,1092.22 2072.43,1096.12C2065.89,1100.02 2061.16,1105.54 2058.26,1112.68L2057.86,1112.68L2057.86,1093.25L2046.36,1093.25ZM2128.25,1144.41C2128.25,1149.7 2127.62,1154.95 2126.37,1160.17C2125.11,1165.39 2123.13,1170.05 2120.42,1174.15C2117.71,1178.25 2114.24,1181.59 2110.01,1184.16C2105.78,1186.74 2100.69,1188.03 2094.74,1188.03C2088.13,1188.03 2082.55,1186.74 2077.99,1184.16C2073.42,1181.59 2069.72,1178.25 2066.88,1174.15C2064.04,1170.05 2061.99,1165.39 2060.73,1160.17C2059.48,1154.95 2058.85,1149.7 2058.85,1144.41C2058.85,1138.59 2059.41,1133.04 2060.53,1127.75C2061.66,1122.46 2063.61,1117.84 2066.39,1113.87C2069.16,1109.9 2072.86,1106.73 2077.49,1104.35C2082.12,1101.97 2087.87,1100.78 2094.74,1100.78C2100.69,1100.78 2105.78,1102.07 2110.01,1104.65C2114.24,1107.23 2117.71,1110.57 2120.42,1114.66C2123.13,1118.76 2125.11,1123.42 2126.37,1128.64C2127.62,1133.87 2128.25,1139.12 2128.25,1144.41Z" style="fill-rule:nonzero;"/>
            <path d="M2160.18,1093.25L2160.18,1233.24L2172.67,1233.24L2172.67,1176.13L2173.07,1176.13C2174.39,1179.84 2176.27,1183.08 2178.72,1185.85C2181.16,1188.63 2183.97,1190.94 2187.14,1192.79C2190.32,1194.64 2193.76,1196.03 2197.46,1196.95C2201.16,1197.88 2204.86,1198.34 2208.56,1198.34C2216.36,1198.34 2223.14,1196.92 2228.89,1194.08C2234.64,1191.24 2239.43,1187.34 2243.26,1182.38C2247.1,1177.42 2249.94,1171.67 2251.79,1165.13C2253.64,1158.59 2254.57,1151.68 2254.57,1144.41C2254.57,1137.14 2253.64,1130.23 2251.79,1123.69C2249.94,1117.14 2247.1,1111.39 2243.26,1106.43C2239.43,1101.48 2234.64,1097.55 2228.89,1094.64C2223.14,1091.73 2216.36,1090.27 2208.56,1090.27C2200.23,1090.27 2192.8,1092.22 2186.25,1096.12C2179.71,1100.02 2174.98,1105.54 2172.07,1112.68L2171.68,1112.68L2171.68,1093.25L2160.18,1093.25ZM2242.07,1144.41C2242.07,1149.7 2241.44,1154.95 2240.19,1160.17C2238.93,1165.39 2236.95,1170.05 2234.24,1174.15C2231.53,1178.25 2228.06,1181.59 2223.83,1184.16C2219.6,1186.74 2214.51,1188.03 2208.56,1188.03C2201.95,1188.03 2196.37,1186.74 2191.8,1184.16C2187.24,1181.59 2183.54,1178.25 2180.7,1174.15C2177.86,1170.05 2175.81,1165.39 2174.55,1160.17C2173.3,1154.95 2172.67,1149.7 2172.67,1144.41C2172.67,1138.59 2173.23,1133.04 2174.36,1127.75C2175.48,1122.46 2177.43,1117.84 2180.2,1113.87C2182.98,1109.9 2186.68,1106.73 2191.31,1104.35C2195.94,1101.97 2201.69,1100.78 2208.56,1100.78C2214.51,1100.78 2219.6,1102.07 2223.83,1104.65C2228.06,1107.23 2231.53,1110.57 2234.24,1114.66C2236.95,1118.76 2238.93,1123.42 2240.19,1128.64C2241.44,1133.87 2242.07,1139.12 2242.07,1144.41Z" style="fill-rule:nonzero;"/>
            <path d="M2347.56,1137.27L2281.33,1137.27C2281.86,1132.64 2282.95,1128.12 2284.61,1123.69C2286.26,1119.26 2288.47,1115.36 2291.25,1111.99C2294.03,1108.62 2297.4,1105.91 2301.36,1103.86C2305.33,1101.81 2309.89,1100.78 2315.04,1100.78C2320.07,1100.78 2324.56,1101.81 2328.53,1103.86C2332.49,1105.91 2335.87,1108.62 2338.64,1111.99C2341.42,1115.36 2343.57,1119.23 2345.09,1123.59C2346.61,1127.95 2347.43,1132.51 2347.56,1137.27ZM2281.33,1147.78L2360.06,1147.78C2360.32,1140.64 2359.66,1133.6 2358.07,1126.66C2356.49,1119.72 2353.88,1113.57 2350.24,1108.22C2346.61,1102.87 2341.88,1098.54 2336.06,1095.23C2330.25,1091.93 2323.24,1090.27 2315.04,1090.27C2306.98,1090.27 2300.01,1091.83 2294.12,1094.93C2288.24,1098.04 2283.45,1102.14 2279.75,1107.23C2276.05,1112.32 2273.3,1118.1 2271.52,1124.58C2269.73,1131.06 2268.84,1137.67 2268.84,1144.41C2268.84,1151.68 2269.73,1158.59 2271.52,1165.13C2273.3,1171.67 2276.05,1177.42 2279.75,1182.38C2283.45,1187.34 2288.24,1191.24 2294.12,1194.08C2300.01,1196.92 2306.98,1198.34 2315.04,1198.34C2328,1198.34 2338.01,1195.17 2345.09,1188.83C2352.16,1182.48 2357.02,1173.49 2359.66,1161.86L2347.17,1161.86C2345.18,1169.79 2341.62,1176.13 2336.46,1180.89C2331.3,1185.65 2324.17,1188.03 2315.04,1188.03C2309.1,1188.03 2304.01,1186.78 2299.78,1184.27C2295.55,1181.75 2292.04,1178.58 2289.27,1174.75C2286.49,1170.91 2284.47,1166.58 2283.22,1161.76C2281.96,1156.93 2281.33,1152.27 2281.33,1147.78Z" style="fill-rule:nonzero;"/>
            <path d="M2376.91,1093.25L2376.91,1195.57L2389.4,1195.57L2389.4,1141.04C2389.4,1135.62 2390.33,1130.63 2392.18,1126.07C2394.03,1121.51 2396.64,1117.57 2400.01,1114.27C2403.38,1110.96 2407.38,1108.42 2412.01,1106.63C2416.64,1104.85 2421.79,1104.09 2427.48,1104.35L2427.48,1091.86C2418.22,1091.46 2410.26,1093.51 2403.58,1098.01C2396.91,1102.5 2391.98,1108.91 2388.81,1117.24L2388.41,1117.24L2388.41,1093.25L2376.91,1093.25Z" style="fill-rule:nonzero;"/>
            <path d="M2533.96,1103.76L2533.96,1093.25L2513.73,1093.25L2513.73,1084.33C2513.73,1081.55 2513.8,1078.97 2513.93,1076.59C2514.06,1074.21 2514.56,1072.13 2515.42,1070.35C2516.28,1068.56 2517.63,1067.14 2519.48,1066.08C2521.34,1065.02 2523.98,1064.5 2527.42,1064.5C2528.87,1064.5 2530.32,1064.6 2531.78,1064.79C2533.23,1064.99 2534.82,1065.22 2536.54,1065.49L2536.54,1054.78C2534.55,1054.52 2532.77,1054.32 2531.18,1054.18C2529.6,1054.05 2527.88,1053.99 2526.03,1053.99C2521,1053.99 2516.87,1054.71 2513.63,1056.17C2510.4,1057.62 2507.85,1059.67 2506,1062.31C2504.15,1064.96 2502.89,1068.13 2502.23,1071.83C2501.57,1075.53 2501.24,1079.57 2501.24,1083.93L2501.24,1093.25L2483.79,1093.25L2483.79,1103.76L2501.24,1103.76L2501.24,1195.57L2513.73,1195.57L2513.73,1103.76L2533.96,1103.76Z" style="fill-rule:nonzero;"/>
            <path d="M2589.09,1100.78C2595.03,1100.78 2600.26,1102.04 2604.75,1104.55C2609.24,1107.06 2612.98,1110.37 2615.95,1114.47C2618.93,1118.56 2621.18,1123.22 2622.7,1128.44C2624.22,1133.67 2624.98,1138.99 2624.98,1144.41C2624.98,1149.83 2624.22,1155.15 2622.7,1160.37C2621.18,1165.59 2618.93,1170.25 2615.95,1174.35C2612.98,1178.45 2609.24,1181.75 2604.75,1184.27C2600.26,1186.78 2595.03,1188.03 2589.09,1188.03C2583.14,1188.03 2577.91,1186.78 2573.42,1184.27C2568.93,1181.75 2565.19,1178.45 2562.22,1174.35C2559.24,1170.25 2556.99,1165.59 2555.47,1160.37C2553.95,1155.15 2553.19,1149.83 2553.19,1144.41C2553.19,1138.99 2553.95,1133.67 2555.47,1128.44C2556.99,1123.22 2559.24,1118.56 2562.22,1114.47C2565.19,1110.37 2568.93,1107.06 2573.42,1104.55C2577.91,1102.04 2583.14,1100.78 2589.09,1100.78ZM2589.09,1090.27C2581.28,1090.27 2574.38,1091.73 2568.36,1094.64C2562.35,1097.55 2557.29,1101.44 2553.19,1106.34C2549.1,1111.23 2545.99,1116.94 2543.87,1123.49C2541.76,1130.03 2540.7,1137.01 2540.7,1144.41C2540.7,1151.81 2541.76,1158.78 2543.87,1165.33C2545.99,1171.87 2549.1,1177.59 2553.19,1182.48C2557.29,1187.37 2562.35,1191.24 2568.36,1194.08C2574.38,1196.92 2581.28,1198.34 2589.09,1198.34C2596.88,1198.34 2603.79,1196.92 2609.81,1194.08C2615.82,1191.24 2620.88,1187.37 2624.98,1182.48C2629.07,1177.59 2632.18,1171.87 2634.3,1165.33C2636.41,1158.78 2637.47,1151.81 2637.47,1144.41C2637.47,1137.01 2636.41,1130.03 2634.3,1123.49C2632.18,1116.94 2629.07,1111.23 2624.98,1106.34C2620.88,1101.44 2615.82,1097.55 2609.81,1094.64C2603.79,1091.73 2596.88,1090.27 2589.09,1090.27Z" style="fill-rule:nonzero;"/>
            <path d="M2656.11,1093.25L2656.11,1195.57L2668.6,1195.57L2668.6,1141.04C2668.6,1135.62 2669.53,1130.63 2671.38,1126.07C2673.23,1121.51 2675.84,1117.57 2679.21,1114.27C2682.58,1110.96 2686.58,1108.42 2691.21,1106.63C2695.83,1104.85 2700.99,1104.09 2706.67,1104.35L2706.67,1091.86C2697.42,1091.46 2689.45,1093.51 2682.78,1098.01C2676.1,1102.5 2671.18,1108.91 2668.01,1117.24L2667.61,1117.24L2667.61,1093.25L2656.11,1093.25Z" style="fill-rule:nonzero;"/>
            <path d="M2776.08,1053.99L2776.08,1195.57L2868.88,1195.57L2868.88,1184.07L2789.56,1184.07L2789.56,1053.99L2776.08,1053.99Z" style="fill-rule:nonzero;"/>
            <rect x="2883.55" y="1053.99" width="13.484" height="141.581" style="fill-rule:nonzero;"/>
            <path d="M2926.58,1053.99L2926.58,1195.57L2940.06,1195.57L2940.06,1146.99L2967.23,1121.8L3026.12,1195.57L3043.57,1195.57L2977.34,1112.48L3040.6,1053.99L3022.36,1053.99L2940.06,1130.13L2940.06,1053.99L2926.58,1053.99Z" style="fill-rule:nonzero;"/>
            <path d="M3040.8,1053.99L3080.06,1195.57L3094.73,1195.57L3130.42,1068.86L3130.82,1068.86L3166.71,1195.57L3180.99,1195.57L3220.05,1053.99L3206.57,1053.99L3174.25,1177.92L3173.85,1177.92L3139.15,1053.99L3122.29,1053.99L3087.79,1177.92L3087.39,1177.92L3055.27,1053.99L3040.8,1053.99Z" style="fill-rule:nonzero;"/>
            <rect x="3235.92" y="1053.99" width="13.484" height="141.581" style="fill-rule:nonzero;"/>
            <path d="M3278.95,1053.99L3278.95,1195.57L3327.92,1195.57C3349.47,1195.04 3365.7,1188.99 3376.61,1177.42C3387.51,1165.86 3392.96,1148.31 3392.96,1124.78C3392.96,1101.25 3387.51,1083.7 3376.61,1072.13C3365.7,1060.56 3349.47,1054.52 3327.92,1053.99L3278.95,1053.99ZM3292.43,1184.07L3292.43,1065.49L3321.18,1065.49C3331.36,1065.49 3340.12,1066.58 3347.46,1068.76C3354.79,1070.94 3360.84,1074.41 3365.6,1079.17C3370.36,1083.93 3373.86,1090.08 3376.11,1097.61C3378.36,1105.15 3379.48,1114.2 3379.48,1124.78C3379.48,1135.35 3378.36,1144.41 3376.11,1151.94C3373.86,1159.48 3370.36,1165.62 3365.6,1170.38C3360.84,1175.14 3354.79,1178.61 3347.46,1180.79C3340.12,1182.98 3331.36,1184.07 3321.18,1184.07L3292.43,1184.07Z" style="fill-rule:nonzero;"/>
        </g>
    </g>
</svg>
